<svg width="624" height="425" viewBox="0 0 624 425" fill="none" xmlns="http://www.w3.org/2000/svg">
<g clip-path="url(#clip0_3224_32249)">
<path d="M268.236 66.2316L255.795 64.4678" stroke="#011635" stroke-opacity="0.2" stroke-width="1.30868" stroke-miterlimit="10" stroke-linecap="round" stroke-linejoin="round"/>
<path d="M558.794 391.48L568.676 399.329" stroke="#011635" stroke-opacity="0.2" stroke-width="1.30868" stroke-miterlimit="10" stroke-linecap="round" stroke-linejoin="round"/>
<path d="M367.323 0.705566L372.794 11.994" stroke="#011635" stroke-opacity="0.2" stroke-width="1.30868" stroke-miterlimit="10" stroke-linecap="round" stroke-linejoin="round"/>
<path d="M8.91113 213.511L18.7053 221.272" stroke="#011635" stroke-opacity="0.2" stroke-width="1.30868" stroke-miterlimit="10" stroke-linecap="round" stroke-linejoin="round"/>
<path d="M576.265 236.528L588.088 232.295" stroke="#011635" stroke-opacity="0.2" stroke-width="1.30868" stroke-miterlimit="10" stroke-linecap="round" stroke-linejoin="round"/>
<path d="M422.647 392.626L425.471 404.885" stroke="#011635" stroke-opacity="0.2" stroke-width="1.30868" stroke-miterlimit="10" stroke-linecap="round" stroke-linejoin="round"/>
<path d="M78.4407 369.608L72.8818 380.897" stroke="#011635" stroke-opacity="0.2" stroke-width="1.30868" stroke-miterlimit="10" stroke-linecap="round" stroke-linejoin="round"/>
<path d="M590.912 70.5527L585.354 81.8412" stroke="#011635" stroke-opacity="0.2" stroke-width="1.30868" stroke-miterlimit="10" stroke-linecap="round" stroke-linejoin="round"/>
<path d="M62.1178 157.862C62.1178 156.362 60.8825 155.04 59.2942 155.04C57.7942 155.04 56.4707 156.274 56.4707 157.862C56.4707 159.449 57.706 160.684 59.2942 160.684C60.8825 160.684 62.1178 159.361 62.1178 157.862Z" stroke="#011635" stroke-opacity="0.2" stroke-width="1.30868" stroke-miterlimit="10" stroke-linecap="round" stroke-linejoin="round"/>
<path d="M623.382 133.698C623.382 132.198 622.147 130.875 620.559 130.875C618.971 130.875 617.735 132.11 617.735 133.698C617.735 135.197 618.971 136.52 620.559 136.52C622.147 136.52 623.382 135.197 623.382 133.698Z" stroke="#011635" stroke-opacity="0.2" stroke-width="1.30868" stroke-miterlimit="10" stroke-linecap="round" stroke-linejoin="round"/>
<path d="M159.618 63.8114C159.618 62.3121 158.382 60.9893 156.794 60.9893C155.206 60.9893 153.971 62.2239 153.971 63.8114C153.971 65.3988 155.206 66.6335 156.794 66.6335C158.382 66.6335 159.618 65.3988 159.618 63.8114Z" stroke="#011635" stroke-opacity="0.2" stroke-width="1.30868" stroke-miterlimit="10" stroke-linecap="round" stroke-linejoin="round"/>
<path d="M109.618 35.8114C109.618 34.3121 108.382 32.9893 106.794 32.9893C105.206 32.9893 103.971 34.2239 103.971 35.8114C103.971 37.3988 105.206 38.6335 106.794 38.6335C108.382 38.6335 109.618 37.3988 109.618 35.8114Z" stroke="#011635" stroke-opacity="0.2" stroke-width="1.30868" stroke-miterlimit="10" stroke-linecap="round" stroke-linejoin="round"/>
<path d="M16.5885 333.274C16.5885 331.775 15.3532 330.452 13.7649 330.452C12.1767 330.452 10.9414 331.687 10.9414 333.274C10.9414 334.773 12.1767 336.096 13.7649 336.096C15.3532 336.096 16.5885 334.862 16.5885 333.274Z" stroke="#011635" stroke-opacity="0.2" stroke-width="1.30868" stroke-miterlimit="10" stroke-linecap="round" stroke-linejoin="round"/>
<path d="M540.176 18.2557C540.176 16.7565 538.941 15.4336 537.353 15.4336C535.853 15.4336 534.529 16.6683 534.529 18.2557C534.529 19.755 535.765 21.0778 537.353 21.0778C538.941 21.0778 540.176 19.8431 540.176 18.2557Z" stroke="#011635" stroke-opacity="0.2" stroke-width="1.30868" stroke-miterlimit="10" stroke-linecap="round" stroke-linejoin="round"/>
<path d="M304.852 26.6336C304.852 25.1344 303.617 23.8115 302.029 23.8115C300.529 23.8115 299.205 25.0462 299.205 26.6336C299.205 28.2211 300.44 29.4557 302.029 29.4557C303.617 29.4557 304.852 28.2211 304.852 26.6336Z" stroke="#011635" stroke-opacity="0.2" stroke-width="1.30868" stroke-miterlimit="10" stroke-linecap="round" stroke-linejoin="round"/>
<path d="M129.088 401.534C129.088 400.034 127.853 398.711 126.265 398.711C124.765 398.711 123.441 399.946 123.441 401.534C123.441 403.121 124.677 404.356 126.265 404.356C127.853 404.267 129.088 403.033 129.088 401.534Z" stroke="#011635" stroke-opacity="0.2" stroke-width="1.30868" stroke-miterlimit="10" stroke-linecap="round" stroke-linejoin="round"/>
<path d="M593.735 312.461C593.735 310.962 592.5 309.639 590.911 309.639C589.411 309.639 588.088 310.873 588.088 312.461C588.088 313.96 589.323 315.283 590.911 315.283C592.411 315.195 593.735 313.96 593.735 312.461Z" stroke="#011635" stroke-opacity="0.2" stroke-width="1.30868" stroke-miterlimit="10" stroke-linecap="round" stroke-linejoin="round"/>
<path d="M80.1766 65.7861L73.2061 76.2809" stroke="#011635" stroke-opacity="0.2" stroke-width="1.30868" stroke-miterlimit="10" stroke-linecap="round" stroke-linejoin="round"/>
<path d="M120.177 -2.21387L113.206 8.28086" stroke="#011635" stroke-opacity="0.2" stroke-width="1.30868" stroke-miterlimit="10" stroke-linecap="round" stroke-linejoin="round"/>
<path d="M31.9385 16.5189L21.4437 9.54834" stroke="#011635" stroke-opacity="0.2" stroke-width="1.30868" stroke-miterlimit="10" stroke-linecap="round" stroke-linejoin="round"/>
<path d="M122.117 374.283C230.735 426.844 412.058 388.217 479.47 334.773C567.088 265.367 588.264 102.478 497.382 47.4467C445.676 16.1389 362.029 23.4588 294.882 114.472C232.5 198.959 187.235 158.038 116.911 182.82C27.882 214.128 29.2937 329.393 122.117 374.283Z" fill="#8791FF"/>
<path d="M170.823 319.251C170.823 319.251 173.558 332.304 166.588 343.857" stroke="#011635" stroke-width="1.30868" stroke-miterlimit="10" stroke-linecap="round" stroke-linejoin="round"/>
<path d="M157.5 319.251C157.5 319.251 157.147 329.746 151.765 338.654" stroke="#011635" stroke-width="1.30868" stroke-miterlimit="10" stroke-linecap="round" stroke-linejoin="round"/>
<path d="M151.236 98.2446H457.942C463.765 98.2446 468.53 103.007 468.53 108.828V312.284C468.53 318.105 463.765 322.867 457.942 322.867H151.236C145.412 322.867 140.647 318.105 140.647 312.284V108.828C140.647 103.007 145.412 98.2446 151.236 98.2446Z" fill="white" stroke="#011635" stroke-width="1.30868" stroke-miterlimit="10" stroke-linecap="round" stroke-linejoin="round"/>
<path d="M151.236 322.867H457.942C463.765 322.867 468.53 318.105 468.53 312.284V301.525H140.647V312.284C140.647 318.193 145.412 322.867 151.236 322.867Z" fill="#80839C" stroke="#011635" stroke-width="1.30868" stroke-miterlimit="10" stroke-linecap="round" stroke-linejoin="round"/>
<path d="M309.882 312.196C309.882 309.286 307.588 306.993 304.677 306.993C301.765 306.993 299.471 309.286 299.471 312.196C299.471 315.107 301.765 317.4 304.677 317.4C307.5 317.4 309.882 315.107 309.882 312.196Z" fill="#D0D0D6" stroke="#011635" stroke-width="1.30868" stroke-miterlimit="10" stroke-linecap="round" stroke-linejoin="round"/>
<path d="M458.03 98.2446H151.236C145.412 98.2446 140.647 103.007 140.647 108.828H468.53C468.618 103.007 463.853 98.2446 458.03 98.2446Z" fill="#80839C" stroke="#011635" stroke-width="1.30868" stroke-miterlimit="10" stroke-linecap="round" stroke-linejoin="round"/>
<path d="M281.119 126.466H162.53V206.984H281.119V126.466Z" fill="#F5F5FF"/>
<path d="M281.119 204.074H162.53V206.984H281.119V204.074Z" fill="#D5D8FF"/>
<path d="M173.559 132.021H168.089V137.489H173.559V132.021Z" stroke="#011635" stroke-width="1.30868" stroke-miterlimit="10" stroke-linecap="round" stroke-linejoin="round"/>
<path d="M184.413 137.489H179.03" stroke="#011635" stroke-width="1.30868" stroke-miterlimit="10" stroke-linecap="round" stroke-linejoin="round"/>
<path d="M182.647 184.143L198.618 153.276L214.236 176.735L232.589 158.215L244.412 172.061L263.206 180.968" stroke="#011635" stroke-width="1.30868" stroke-miterlimit="10" stroke-linecap="round" stroke-linejoin="round"/>
<path d="M184.588 184.142C184.588 183.084 183.706 182.202 182.647 182.202C181.588 182.202 180.706 183.084 180.706 184.142C180.706 185.201 181.588 186.083 182.647 186.083C183.706 186.083 184.588 185.201 184.588 184.142Z" fill="white" stroke="#011635" stroke-width="1.30868" stroke-miterlimit="10" stroke-linecap="round" stroke-linejoin="round"/>
<path d="M234.529 158.215C234.529 157.156 233.647 156.274 232.588 156.274C231.529 156.274 230.646 157.156 230.646 158.215C230.646 159.273 231.529 160.155 232.588 160.155C233.735 160.155 234.529 159.273 234.529 158.215Z" fill="white" stroke="#011635" stroke-width="1.30868" stroke-miterlimit="10" stroke-linecap="round" stroke-linejoin="round"/>
<path d="M214.235 178.675C215.307 178.675 216.176 177.806 216.176 176.735C216.176 175.663 215.307 174.794 214.235 174.794C213.163 174.794 212.294 175.663 212.294 176.735C212.294 177.806 213.163 178.675 214.235 178.675Z" fill="white" stroke="#011635" stroke-width="1.30868" stroke-miterlimit="10" stroke-linecap="round" stroke-linejoin="round"/>
<path d="M246.353 172.06C246.353 171.002 245.471 170.12 244.412 170.12C243.353 170.12 242.471 171.002 242.471 172.06C242.471 173.119 243.353 174.001 244.412 174.001C245.471 174.001 246.353 173.119 246.353 172.06Z" fill="white" stroke="#011635" stroke-width="1.30868" stroke-miterlimit="10" stroke-linecap="round" stroke-linejoin="round"/>
<path d="M200.559 153.276C200.559 152.217 199.677 151.335 198.618 151.335C197.559 151.335 196.677 152.217 196.677 153.276C196.677 154.334 197.559 155.216 198.618 155.216C199.677 155.216 200.559 154.334 200.559 153.276Z" fill="white" stroke="#011635" stroke-width="1.30868" stroke-miterlimit="10" stroke-linecap="round" stroke-linejoin="round"/>
<path d="M265.147 180.968C265.147 179.909 264.265 179.027 263.206 179.027C262.147 179.027 261.265 179.909 261.265 180.968C261.265 182.026 262.147 182.908 263.206 182.908C264.265 182.996 265.147 182.114 265.147 180.968Z" fill="white" stroke="#011635" stroke-width="1.30868" stroke-miterlimit="10" stroke-linecap="round" stroke-linejoin="round"/>
<path d="M182.647 193.932H263.206" stroke="#011635" stroke-width="1.30868" stroke-miterlimit="10" stroke-linecap="round" stroke-linejoin="round"/>
<path d="M275.118 132.021H244.235V137.489H275.118V132.021Z" fill="white"/>
<path d="M275.206 140.047H259.412V145.515H275.206V140.047Z" fill="#8791FF"/>
<path d="M281.119 214.216H162.53V283.887H281.119V214.216Z" fill="#F5F5FF"/>
<path d="M281.119 280.977H162.53V283.887H281.119V280.977Z" fill="#D5D8FF"/>
<path d="M173.559 219.772H168.089V225.24H173.559V219.772Z" stroke="#011635" stroke-width="1.30868" stroke-miterlimit="10" stroke-linecap="round" stroke-linejoin="round"/>
<path d="M184.413 225.24H179.03" stroke="#011635" stroke-width="1.30868" stroke-miterlimit="10" stroke-linecap="round" stroke-linejoin="round"/>
<path d="M275.118 232.472H173.56V236.353H275.118V232.472Z" fill="#8791FF"/>
<path d="M275.118 241.732H173.56V245.613H275.118V241.732Z" fill="white"/>
<path d="M236.471 250.992H173.56V254.873H236.471V250.992Z" fill="white"/>
<path d="M219.089 260.164H173.56V264.044H219.089V260.164Z" fill="#8791FF"/>
<path d="M249.53 260.164H223.941V264.044H249.53V260.164Z" fill="#8791FF"/>
<path d="M201.265 269.424H173.56V273.305H201.265V269.424Z" fill="white"/>
<path d="M446.736 126.466H293.647V146.397H446.736V126.466Z" fill="#F5F5FF"/>
<path d="M446.736 146.397H293.647V149.307H446.736V146.397Z" fill="#D5D8FF"/>
<path d="M299.206 132.022H304.677" stroke="#011635" stroke-width="1.30868" stroke-miterlimit="10" stroke-linecap="round" stroke-linejoin="round"/>
<path d="M310.059 132.022H315.529" stroke="#011635" stroke-width="1.30868" stroke-miterlimit="10" stroke-linecap="round" stroke-linejoin="round"/>
<path d="M304.677 129.905H299.206V132.022H304.677V129.905Z" stroke="#011635" stroke-width="1.30868" stroke-miterlimit="10" stroke-linecap="round" stroke-linejoin="round"/>
<path d="M359.03 136.784H304.677V140.665H359.03V136.784Z" fill="#8791FF"/>
<path d="M385.236 136.784H362.383V140.665H385.236V136.784Z" fill="white"/>
<path d="M446.736 153.364H293.647V173.295H446.736V153.364Z" fill="#F5F5FF"/>
<path d="M446.736 173.207H293.647V176.117H446.736V173.207Z" fill="#D5D8FF"/>
<path d="M299.206 158.92H304.677" stroke="#011635" stroke-width="1.30868" stroke-miterlimit="10" stroke-linecap="round" stroke-linejoin="round"/>
<path d="M310.059 158.92H315.529" stroke="#011635" stroke-width="1.30868" stroke-miterlimit="10" stroke-linecap="round" stroke-linejoin="round"/>
<path d="M304.677 156.804H299.206V158.92H304.677V156.804Z" stroke="#011635" stroke-width="1.30868" stroke-miterlimit="10" stroke-linecap="round" stroke-linejoin="round"/>
<path d="M329.559 163.683H304.677V167.563H329.559V163.683Z" fill="#8791FF"/>
<path d="M432.53 163.683H359.912V167.563H432.53V163.683Z" fill="#8791FF"/>
<path d="M356.471 163.683H333.618V167.563H356.471V163.683Z" fill="white"/>
<path d="M446.736 180.174H293.647V200.105H446.736V180.174Z" fill="#F5F5FF"/>
<path d="M446.736 200.105H293.647V203.016H446.736V200.105Z" fill="#D5D8FF"/>
<path d="M299.206 185.73H304.677" stroke="#011635" stroke-width="1.30868" stroke-miterlimit="10" stroke-linecap="round" stroke-linejoin="round"/>
<path d="M310.059 185.73H315.529" stroke="#011635" stroke-width="1.30868" stroke-miterlimit="10" stroke-linecap="round" stroke-linejoin="round"/>
<path d="M304.677 183.613H299.206V185.73H304.677V183.613Z" stroke="#011635" stroke-width="1.30868" stroke-miterlimit="10" stroke-linecap="round" stroke-linejoin="round"/>
<path d="M359.03 190.493H304.677V194.373H359.03V190.493Z" fill="#8791FF"/>
<path d="M446.736 207.073H293.647V227.004H446.736V207.073Z" fill="#F5F5FF"/>
<path d="M446.736 227.004H293.647V229.914H446.736V227.004Z" fill="#D5D8FF"/>
<path d="M299.206 212.628H304.677" stroke="#011635" stroke-width="1.30868" stroke-miterlimit="10" stroke-linecap="round" stroke-linejoin="round"/>
<path d="M310.059 212.628H315.529" stroke="#011635" stroke-width="1.30868" stroke-miterlimit="10" stroke-linecap="round" stroke-linejoin="round"/>
<path d="M304.677 210.512H299.206V212.628H304.677V210.512Z" stroke="#011635" stroke-width="1.30868" stroke-miterlimit="10" stroke-linecap="round" stroke-linejoin="round"/>
<path d="M342.794 217.391H304.677V221.272H342.794V217.391Z" fill="#8791FF"/>
<path d="M411.353 217.391H347.206V221.272H411.353V217.391Z" fill="white"/>
<path d="M426.706 217.391H416.118V221.272H426.706V217.391Z" fill="white"/>
<path d="M446.736 238.38H293.647V283.887H446.736V238.38Z" fill="#F5F5FF"/>
<path d="M446.736 280.977H293.647V283.887H446.736V280.977Z" fill="#D5D8FF"/>
<path d="M304.677 243.936H299.206V249.404H304.677V243.936Z" stroke="#011635" stroke-width="1.30868" stroke-miterlimit="10" stroke-linecap="round" stroke-linejoin="round"/>
<path d="M315.529 249.404H310.059" stroke="#011635" stroke-width="1.30868" stroke-miterlimit="10" stroke-linecap="round" stroke-linejoin="round"/>
<path d="M344.647 250.11H322.677V272.069H344.647V250.11Z" fill="#8791FF"/>
<path d="M328.236 266.602L339.089 255.666" stroke="#011635" stroke-width="1.30868" stroke-miterlimit="10" stroke-linecap="round" stroke-linejoin="round"/>
<path d="M339.089 266.602L328.236 255.666" stroke="#011635" stroke-width="1.30868" stroke-miterlimit="10" stroke-linecap="round" stroke-linejoin="round"/>
<path d="M374.646 250.11H352.676V272.069H374.646V250.11Z" fill="#8791FF"/>
<path d="M358.234 266.602L369.087 255.666" stroke="#011635" stroke-width="1.30868" stroke-miterlimit="10" stroke-linecap="round" stroke-linejoin="round"/>
<path d="M404.647 250.11H382.677V272.069H404.647V250.11Z" fill="#8791FF"/>
<path d="M399.176 256.195H389.294V266.072H399.176V256.195Z" stroke="#011635" stroke-width="1.30868" stroke-miterlimit="10" stroke-linecap="round" stroke-linejoin="round"/>
<path d="M434.971 250H413V271.96H434.971V250Z" fill="#8791FF"/>
<path d="M419 260.939C419 263.666 421.214 265.877 423.941 265.877C426.669 265.877 428.882 263.666 428.882 260.939C428.882 258.211 426.669 256 423.941 256C421.214 256 419 258.211 419 260.939Z" stroke="#011635" stroke-width="1.30868" stroke-miterlimit="10" stroke-linecap="round" stroke-linejoin="round"/>
<path d="M596.146 362.047H468.735C465.205 362.047 462.382 359.225 462.382 355.698V228.35C462.382 224.822 465.205 222 468.735 222H596.146C599.676 222 602.499 224.822 602.499 228.35V355.698C602.499 359.225 599.676 362.047 596.146 362.047Z" fill="white"/>
<path d="M596.147 362.047H468.735C465.205 362.047 462.382 359.225 462.382 355.698V228.35C462.382 224.822 465.205 222 468.735 222H596.147C599.676 222 602.499 224.822 602.499 228.35V355.698C602.499 359.225 599.676 362.047 596.147 362.047Z" stroke="#011635" stroke-width="1.30868" stroke-miterlimit="10" stroke-linecap="round" stroke-linejoin="round"/>
<path d="M470.588 234.612L475.617 229.585" stroke="#011635" stroke-width="1.30868" stroke-miterlimit="10" stroke-linecap="round" stroke-linejoin="round"/>
<path d="M470.588 229.585L475.617 234.612" stroke="#011635" stroke-width="1.30868" stroke-miterlimit="10" stroke-linecap="round" stroke-linejoin="round"/>
<path d="M489.647 269.005C483.735 269.005 478.971 273.768 478.971 279.677V282.234H500.235V279.677C500.324 273.768 495.559 269.005 489.647 269.005Z" fill="#8791FF"/>
<path d="M495.736 260.803C495.736 257.452 493.001 254.718 489.648 254.718C486.295 254.718 483.56 257.452 483.56 260.803C483.56 264.155 486.295 266.889 489.648 266.889C493.001 266.889 495.736 264.155 495.736 260.803Z" fill="#8791FF"/>
<path d="M503.676 244.841H475.617V282.234H503.676V244.841Z" stroke="#011635" stroke-width="1.30868" stroke-miterlimit="10" stroke-linecap="round" stroke-linejoin="round"/>
<path d="M510.731 274.179H541.613V268.711H510.731V274.179Z" fill="#8791FF"/>
<path d="M510.679 282.202H526.473V276.734H510.679V282.202Z" fill="#8791FF"/>
<path d="M589.264 278.883C589.264 277.031 587.764 275.531 585.912 275.531C584.059 275.531 582.559 277.031 582.559 278.883C582.559 280.735 584.059 282.234 585.912 282.234C587.764 282.234 589.264 280.735 589.264 278.883Z" stroke="#011635" stroke-width="1.30868" stroke-miterlimit="10" stroke-linecap="round" stroke-linejoin="round"/>
<path d="M589.264 290.877H475.617V313.19H589.264V290.877Z" fill="#F5F5FF"/>
<path d="M583.175 295.993H481.616V299.873H583.175V295.993Z" fill="#8791FF"/>
<path d="M519.999 305.165H481.616V309.045H519.999V305.165Z" fill="white"/>
<path d="M589.264 321.92H475.617V344.232H589.264V321.92Z" fill="#F5F5FF"/>
<path d="M528.116 327.035H481.616V330.915H528.116V327.035Z" fill="#8791FF"/>
<path d="M583.263 327.035H531.557V330.915H583.263V327.035Z" fill="white"/>
<path d="M539.94 336.207H502.793V340.087H539.94V336.207Z" fill="white"/>
<path d="M499.351 336.207H481.616V340.087H499.351V336.207Z" fill="white"/>
<path d="M459.412 295.992C445.912 295.992 446.618 284.704 431.706 284.704C427.648 284.704 424.383 281.441 424.383 277.384V274.474" stroke="#011635" stroke-width="1.30868" stroke-miterlimit="10" stroke-linecap="round" stroke-linejoin="round"/>
<path d="M464.441 295.992C464.441 294.581 463.294 293.523 461.971 293.523C460.559 293.523 459.5 294.669 459.5 295.992C459.5 297.403 460.647 298.462 461.971 298.462C463.294 298.55 464.441 297.403 464.441 295.992Z" fill="#011635" stroke="#011635" stroke-width="1.30868" stroke-miterlimit="10" stroke-linecap="round" stroke-linejoin="round"/>
<path d="M426.941 272.004C426.941 270.593 425.794 269.535 424.471 269.535C423.059 269.535 422 270.681 422 272.004C422 273.415 423.147 274.473 424.471 274.473C425.794 274.473 426.941 273.415 426.941 272.004Z" fill="#011635" stroke="#011635" stroke-width="1.30868" stroke-miterlimit="10" stroke-linecap="round" stroke-linejoin="round"/>
<path d="M581.775 206.974H496.628C493.099 206.974 490.275 204.152 490.275 200.624V115.52C490.275 111.993 493.099 109.17 496.628 109.17H581.775C585.305 109.17 588.128 111.993 588.128 115.52V200.624C588.128 204.152 585.305 206.974 581.775 206.974Z" fill="white"/>
<path d="M532.256 175.847C529.097 175.847 526.613 175.326 524.804 174.283C523.025 173.241 521.753 171.707 520.986 169.683C520.25 167.629 519.882 165.129 519.882 162.185V150.225L519.928 145.579L519.882 142.819H526.414V162.645C526.414 164.792 526.843 166.54 527.702 167.889C528.561 169.208 530.079 169.867 532.256 169.867C534.433 169.867 535.967 169.254 536.856 168.027C537.776 166.77 538.236 164.976 538.236 162.645V142.819H544.63V162.185C544.63 165.068 544.262 167.537 543.526 169.591C542.821 171.615 541.563 173.164 539.754 174.237C537.975 175.311 535.476 175.847 532.256 175.847ZM550.136 175.387V150.179L549.676 145.579L550.136 142.819H556.576V175.387H550.136Z" fill="#011635"/>
<path d="M581.931 207.277H496.784C493.254 207.277 490.431 204.455 490.431 200.927V115.823C490.431 112.295 493.254 109.473 496.784 109.473H581.931C585.46 109.473 588.284 112.295 588.284 115.823V200.927C588.284 204.455 585.46 207.277 581.931 207.277Z" stroke="#011635" stroke-width="1.30868" stroke-miterlimit="10" stroke-linecap="round" stroke-linejoin="round"/>
<path d="M498.726 122.084L503.755 117.057" stroke="#011635" stroke-width="1.30868" stroke-miterlimit="10" stroke-linecap="round" stroke-linejoin="round"/>
<path d="M498.726 117.057L503.755 122.084" stroke="#011635" stroke-width="1.30868" stroke-miterlimit="10" stroke-linecap="round" stroke-linejoin="round"/>
<path d="M450 136.899C464.912 136.899 483.548 148.188 497.048 148.188" stroke="#011635" stroke-width="1.30868" stroke-miterlimit="10" stroke-linecap="round" stroke-linejoin="round"/>
<path d="M502.077 148.188C502.077 146.777 500.93 145.719 499.606 145.719C498.195 145.719 497.136 146.865 497.136 148.188C497.136 149.599 498.283 150.657 499.606 150.657C500.93 150.746 502.077 149.599 502.077 148.188Z" fill="#011635" stroke="#011635" stroke-width="1.30868" stroke-miterlimit="10" stroke-linecap="round" stroke-linejoin="round"/>
<path d="M449.343 136.9C449.343 135.488 448.195 134.43 446.872 134.43C445.46 134.43 444.401 135.577 444.401 136.9C444.401 138.311 445.548 139.369 446.872 139.369C448.195 139.369 449.343 138.311 449.343 136.9Z" fill="#011635" stroke="#011635" stroke-width="1.30868" stroke-miterlimit="10" stroke-linecap="round" stroke-linejoin="round"/>
<path d="M502.078 163.71C502.078 162.299 500.931 161.24 499.607 161.24C498.196 161.24 497.137 162.387 497.137 163.71C497.137 165.121 498.284 166.179 499.607 166.179C500.931 166.267 502.078 165.121 502.078 163.71Z" fill="#011635" stroke="#011635" stroke-width="1.30868" stroke-miterlimit="10" stroke-linecap="round" stroke-linejoin="round"/>
<path d="M449.343 163.71C449.343 162.299 448.195 161.24 446.872 161.24C445.46 161.24 444.401 162.387 444.401 163.71C444.401 165.121 445.548 166.179 446.872 166.179C448.195 166.267 449.343 165.121 449.343 163.71Z" fill="#011635" stroke="#011635" stroke-width="1.30868" stroke-miterlimit="10" stroke-linecap="round" stroke-linejoin="round"/>
<path d="M448 164L497 164" stroke="#011635" stroke-width="1.30868" stroke-miterlimit="10" stroke-linecap="round" stroke-linejoin="round"/>
<path d="M449.5 190.608C464.412 190.608 483.548 179.32 497.048 179.32" stroke="#011635" stroke-width="1.30868" stroke-miterlimit="10" stroke-linecap="round" stroke-linejoin="round"/>
<path d="M502.078 179.32C502.078 180.731 500.931 181.789 499.607 181.789C498.196 181.789 497.137 180.643 497.137 179.32C497.137 177.909 498.284 176.85 499.607 176.85C500.931 176.762 502.078 177.909 502.078 179.32Z" fill="#011635" stroke="#011635" stroke-width="1.30868" stroke-miterlimit="10" stroke-linecap="round" stroke-linejoin="round"/>
<path d="M449.343 190.608C449.343 192.019 448.195 193.077 446.872 193.077C445.46 193.077 444.401 191.931 444.401 190.608C444.401 189.197 445.548 188.139 446.872 188.139C448.195 188.139 449.343 189.197 449.343 190.608Z" fill="#011635" stroke="#011635" stroke-width="1.30868" stroke-miterlimit="10" stroke-linecap="round" stroke-linejoin="round"/>
<g opacity="0.45">
<path opacity="0.45" d="M293.912 375.518H195.442C191.912 375.518 189.089 372.696 189.089 369.168V321.633C189.089 318.105 191.912 315.283 195.442 315.283H293.912C297.442 315.283 300.265 318.105 300.265 321.633V369.168C300.265 372.696 297.442 375.518 293.912 375.518Z" fill="#8791FF"/>
<path opacity="0.45" d="M293.912 375.518H195.442C191.912 375.518 189.089 372.696 189.089 369.168V321.633C189.089 318.105 191.912 315.283 195.442 315.283H293.912C297.442 315.283 300.265 318.105 300.265 321.633V369.168C300.265 372.696 297.442 375.518 293.912 375.518Z" stroke="#8791FF" stroke-width="1.30868" stroke-miterlimit="10" stroke-linecap="round" stroke-linejoin="round"/>
</g>
<path d="M287.877 368.54H189.407C185.877 368.54 183.054 365.718 183.054 362.19V314.655C183.054 311.128 185.877 308.306 189.407 308.306H287.877C291.407 308.306 294.23 311.128 294.23 314.655V362.19C294.23 365.718 291.407 368.54 287.877 368.54Z" fill="white"/>
<path d="M225.889 351.741C223.417 351.741 221.473 351.333 220.057 350.517C218.665 349.701 217.669 348.501 217.069 346.917C216.493 345.309 216.205 343.353 216.205 341.049V331.689L216.241 328.053L216.205 325.893H221.317V341.409C221.317 343.089 221.653 344.457 222.325 345.513C222.997 346.545 224.185 347.061 225.889 347.061C227.593 347.061 228.793 346.581 229.489 345.621C230.209 344.637 230.569 343.233 230.569 341.409V325.893H235.573V341.049C235.573 343.305 235.285 345.237 234.709 346.845C234.157 348.429 233.173 349.641 231.757 350.481C230.365 351.321 228.409 351.741 225.889 351.741ZM237.866 351.381L244.382 338.457L238.226 328.053V325.893H244.31L248.63 336.549H249.35L253.634 325.893H260.114L253.526 338.565L259.754 349.221V351.381H253.778L249.35 341.157H248.63L244.022 351.381H237.866Z" fill="#011635"/>
<path d="M287.737 369.344H189.266C185.737 369.344 182.913 366.522 182.913 362.995V315.46C182.913 311.932 185.737 309.11 189.266 309.11H287.737C291.266 309.11 294.09 311.932 294.09 315.46V362.995C294.09 366.522 291.266 369.344 287.737 369.344Z" stroke="#011635" stroke-width="1.30868" stroke-miterlimit="10" stroke-linecap="round" stroke-linejoin="round"/>
<path d="M191.118 321.721L196.148 316.694" stroke="#011635" stroke-width="1.30868" stroke-miterlimit="10" stroke-linecap="round" stroke-linejoin="round"/>
<path d="M191.118 316.694L196.148 321.721" stroke="#011635" stroke-width="1.30868" stroke-miterlimit="10" stroke-linecap="round" stroke-linejoin="round"/>
<path d="M238.765 312.461C238.765 298.967 227.471 299.673 227.471 284.769C227.471 280.712 224.206 277.449 220.147 277.449H217.235" stroke="#011635" stroke-width="1.30868" stroke-miterlimit="10" stroke-linecap="round" stroke-linejoin="round"/>
<path d="M238.766 317.399C237.354 317.399 236.295 316.253 236.295 314.93C236.295 313.519 237.442 312.46 238.766 312.46C240.177 312.46 241.236 313.607 241.236 314.93C241.324 316.341 240.177 317.399 238.766 317.399Z" fill="#011635" stroke="#011635" stroke-width="1.30868" stroke-miterlimit="10" stroke-linecap="round" stroke-linejoin="round"/>
<path d="M214.765 279.918C213.354 279.918 212.295 278.772 212.295 277.449C212.295 276.038 213.442 274.979 214.765 274.979C216.177 274.979 217.236 276.126 217.236 277.449C217.324 278.86 216.177 279.918 214.765 279.918Z" fill="#011635" stroke="#011635" stroke-width="1.30868" stroke-miterlimit="10" stroke-linecap="round" stroke-linejoin="round"/>
<path d="M360.677 409.663H308.619C305.089 409.663 302.266 406.841 302.266 403.313V375.092C302.266 371.564 305.089 368.742 308.619 368.742H360.677C364.207 368.742 367.03 371.564 367.03 375.092V403.313C367.03 406.841 364.207 409.663 360.677 409.663Z" fill="white"/>
<path d="M360.677 409.663H308.619C305.089 409.663 302.266 406.841 302.266 403.313V375.092C302.266 371.564 305.089 368.742 308.619 368.742H360.677C364.207 368.742 367.03 371.564 367.03 375.092V403.313C367.03 406.841 364.207 409.663 360.677 409.663Z" stroke="#011635" stroke-width="1.30868" stroke-miterlimit="10" stroke-linecap="round" stroke-linejoin="round"/>
<path d="M310.471 381.353L315.5 376.326" stroke="#011635" stroke-width="1.30868" stroke-miterlimit="10" stroke-linecap="round" stroke-linejoin="round"/>
<path d="M310.471 376.326L315.5 381.353" stroke="#011635" stroke-width="1.30868" stroke-miterlimit="10" stroke-linecap="round" stroke-linejoin="round"/>
<path d="M326.001 397.846C326.001 396.523 324.942 395.464 323.619 395.464C322.295 395.464 321.236 396.523 321.236 397.846C321.236 399.168 322.295 400.227 323.619 400.227C324.942 400.227 326.001 399.168 326.001 397.846Z" fill="#011635" stroke="#011635" stroke-width="1.30868" stroke-miterlimit="10" stroke-linecap="round" stroke-linejoin="round"/>
<path d="M350.53 380.471C350.53 379.149 349.472 378.09 348.148 378.09C346.824 378.09 345.766 379.149 345.766 380.471C345.766 381.794 346.824 382.853 348.148 382.853C349.472 382.853 350.53 381.794 350.53 380.471Z" fill="#011635" stroke="#011635" stroke-width="1.30868" stroke-miterlimit="10" stroke-linecap="round" stroke-linejoin="round"/>
<path d="M323.619 397.845C323.619 397.845 344.09 403.225 348.149 380.472" stroke="#011635" stroke-width="1.30868" stroke-miterlimit="10" stroke-linecap="round" stroke-linejoin="round"/>
<path d="M276 368.5C290.912 368.5 292.116 391.583 305.616 391.583" stroke="#011635" stroke-width="1.30868" stroke-miterlimit="10" stroke-linecap="round" stroke-linejoin="round"/>
<path d="M310.646 391.671C310.646 390.26 309.499 389.202 308.176 389.202C306.764 389.202 305.705 390.348 305.705 391.671C305.705 393.082 306.852 394.14 308.176 394.14C309.499 394.14 310.646 392.994 310.646 391.671Z" fill="#011635" stroke="#011635" stroke-width="1.30868" stroke-miterlimit="10" stroke-linecap="round" stroke-linejoin="round"/>
<path d="M277.911 369.295C277.911 367.883 276.764 366.825 275.44 366.825C274.029 366.825 272.97 367.972 272.97 369.295C272.97 370.706 274.117 371.764 275.44 371.764C276.764 371.852 277.911 370.706 277.911 369.295Z" fill="#011635" stroke="#011635" stroke-width="1.30868" stroke-miterlimit="10" stroke-linecap="round" stroke-linejoin="round"/>
<path d="M111.675 327.542H63.7629C60.057 327.542 56.9688 324.543 56.9688 320.751V235.735C56.9688 232.031 59.9688 228.944 63.7629 228.944H111.675C115.381 228.944 118.469 231.943 118.469 235.735V320.751C118.381 324.455 115.381 327.542 111.675 327.542Z" fill="white"/>
<path d="M111.675 327.542H63.7629C60.057 327.542 56.9688 324.543 56.9688 320.751V235.735C56.9688 232.031 59.9688 228.944 63.7629 228.944H111.675C115.381 228.944 118.469 231.943 118.469 235.735V320.751C118.381 324.455 115.381 327.542 111.675 327.542Z" stroke="#011635" stroke-width="1.30868" stroke-miterlimit="10" stroke-linecap="round" stroke-linejoin="round"/>
<path d="M65.2637 241.555L70.2048 236.617" stroke="#011635" stroke-width="1.30868" stroke-miterlimit="10" stroke-linecap="round" stroke-linejoin="round"/>
<path d="M65.2637 236.617L70.2048 241.555" stroke="#011635" stroke-width="1.30868" stroke-miterlimit="10" stroke-linecap="round" stroke-linejoin="round"/>
<path d="M108.323 265.896C108.323 265.72 108.235 265.544 108.147 265.455C108.058 265.367 107.882 265.279 107.706 265.279C94.9996 266.073 88.4702 254.696 88.382 254.52C88.1173 254.079 87.4996 254.079 87.2349 254.52C87.1467 254.608 80.6173 265.984 67.9114 265.279C67.7349 265.279 67.5585 265.367 67.4702 265.455C67.382 265.544 67.2938 265.72 67.2938 265.896C67.2938 266.161 66.1467 296.234 87.7643 299.585H87.8526H87.9408C109.47 296.234 108.323 266.161 108.323 265.896Z" fill="#8791FF"/>
<path d="M159.382 242.79C144.47 242.79 132.5 254.078 119 254.078" stroke="#011635" stroke-width="1.30868" stroke-miterlimit="10" stroke-linecap="round" stroke-linejoin="round"/>
<path d="M115.646 254.166C115.646 252.755 116.794 251.697 118.117 251.697C119.529 251.697 120.588 252.843 120.588 254.166C120.588 255.577 119.441 256.635 118.117 256.635C116.794 256.635 115.646 255.577 115.646 254.166Z" fill="#011635" stroke="#011635" stroke-width="1.30868" stroke-miterlimit="10" stroke-linecap="round" stroke-linejoin="round"/>
<path d="M159.382 242.79C159.382 241.379 160.529 240.32 161.852 240.32C163.264 240.32 164.323 241.467 164.323 242.79C164.323 244.201 163.176 245.259 161.852 245.259C160.529 245.347 159.382 244.201 159.382 242.79Z" fill="#011635" stroke="#011635" stroke-width="1.30868" stroke-miterlimit="10" stroke-linecap="round" stroke-linejoin="round"/>
<path d="M146.028 205.396H97.3217C93.7923 205.396 90.9688 202.574 90.9688 199.046V127.965C90.9688 124.437 93.7923 121.615 97.3217 121.615H146.028C149.557 121.615 152.381 124.437 152.381 127.965V199.046C152.381 202.574 149.557 205.396 146.028 205.396Z" fill="white"/>
<path d="M146.028 205.396H97.3217C93.7923 205.396 90.9688 202.574 90.9688 199.046V127.965C90.9688 124.437 93.7923 121.615 97.3217 121.615H146.028C149.557 121.615 152.381 124.437 152.381 127.965V199.046C152.381 202.574 149.557 205.396 146.028 205.396Z" stroke="#011635" stroke-width="1.30868" stroke-miterlimit="10" stroke-linecap="round" stroke-linejoin="round"/>
<path d="M99.2637 134.226L104.205 129.288" stroke="#011635" stroke-width="1.30868" stroke-miterlimit="10" stroke-linecap="round" stroke-linejoin="round"/>
<path d="M99.2637 129.288L104.205 134.226" stroke="#011635" stroke-width="1.30868" stroke-miterlimit="10" stroke-linecap="round" stroke-linejoin="round"/>
<path d="M100.381 160.795L110.978 165.089V168.095L98.4333 162.283V160.519L100.381 160.795ZM110.978 157.268L100.396 161.623L98.4333 161.838V160.059L110.978 154.262V157.268ZM125.348 148.772L116.039 173.018H113.601L122.925 148.772H125.348ZM139.258 161.409L128.354 157.161V154.231L141.451 160.028V161.823L139.258 161.409ZM128.354 165.151L139.289 160.811L141.451 160.488V162.267L128.354 168.08V165.151Z" fill="#011635"/>
<path d="M173.382 153.54C158.47 153.54 159.176 142.252 145.676 142.252" stroke="#011635" stroke-width="1.30868" stroke-miterlimit="10" stroke-linecap="round" stroke-linejoin="round"/>
<path d="M140.646 142.164C140.646 143.575 141.794 144.633 143.117 144.633C144.529 144.633 145.588 143.487 145.588 142.164C145.588 140.753 144.441 139.694 143.117 139.694C141.794 139.694 140.646 140.753 140.646 142.164Z" fill="#011635" stroke="#011635" stroke-width="1.30868" stroke-miterlimit="10" stroke-linecap="round" stroke-linejoin="round"/>
<path d="M173.382 153.54C173.382 154.951 174.529 156.009 175.852 156.009C177.264 156.009 178.323 154.863 178.323 153.54C178.323 152.129 177.176 151.071 175.852 151.071C174.529 150.982 173.382 152.129 173.382 153.54Z" fill="#011635" stroke="#011635" stroke-width="1.30868" stroke-miterlimit="10" stroke-linecap="round" stroke-linejoin="round"/>
<path d="M100.286 66.4413H38.5025C34.3138 66.4413 30.9629 63.6528 30.9629 60.1671V32.282C30.9629 28.7963 34.3138 26.0078 38.5025 26.0078H100.286C104.474 26.0078 107.825 28.7963 107.825 32.282V60.1671C107.825 63.6528 104.474 66.4413 100.286 66.4413Z" fill="white"/>
<path d="M100.286 67.4521H38.5025C34.3138 67.4521 30.9629 64.5939 30.9629 61.0211V32.4388C30.9629 28.866 34.3138 26.0078 38.5025 26.0078H100.286C104.474 26.0078 107.825 28.866 107.825 32.4388V61.0211C107.825 64.5939 104.474 67.4521 100.286 67.4521Z" stroke="#011635" stroke-width="1.30868" stroke-miterlimit="10" stroke-linecap="round" stroke-linejoin="round"/>
<path d="M44.6435 53.2842C44.2761 53.2842 43.8645 53.2652 43.4085 53.2272C42.9651 53.1892 42.6105 53.1449 42.3445 53.0942L40.2545 51.7642L41.3945 49.6362L44.1495 50.8522C45.0868 50.8522 45.7518 50.5862 46.1445 50.0542C46.5498 49.5096 46.7525 48.6292 46.7525 47.4132V42.6822L46.3535 40.7822L46.5625 39.6422H49.3555L49.3745 48.4012C49.3745 49.3512 49.1908 50.1936 48.8235 50.9282C48.4561 51.6629 47.9178 52.2392 47.2085 52.6572C46.5118 53.0752 45.6568 53.2842 44.6435 53.2842ZM50.2183 53.0942L51.3203 49.5032V47.6602L52.5363 47.0902L55.0063 39.6612H58.7493L61.8083 48.1732L63.2713 50.8712V53.0942H60.6683L59.5283 49.6742H53.9993L52.9923 53.0942H50.2183ZM55.0633 47.3182H58.6733L57.0393 42.1692H56.6403L55.0633 47.3182ZM66.5861 53.0942L63.1661 42.6632L62.5961 40.7822V39.6422H65.4081L68.0871 50.2062H68.4671L71.1081 39.6422H73.8821V40.7822L73.3121 42.6632L69.9111 53.0942H66.5861ZM73.2076 53.0942L74.3096 49.5032V47.6602L75.5256 47.0902L77.9956 39.6612H81.7386L84.7976 48.1732L86.2606 50.8712V53.0942H83.6576L82.5176 49.6742H76.9886L75.9816 53.0942H73.2076ZM78.0526 47.3182H81.6626L80.0286 42.1692H79.6296L78.0526 47.3182Z" fill="#011635"/>
<g opacity="0.45">
<path opacity="0.45" d="M266.736 42.3271H135.883C132.354 42.3271 129.53 45.1493 129.53 48.6769V54.2329C129.53 57.7606 132.354 60.5827 135.883 60.5827H266.648C270.177 60.5827 273.001 57.7606 273.001 54.2329V48.6769C273.089 45.1493 270.177 42.3271 266.736 42.3271Z" fill="#8791FF"/>
<path opacity="0.45" d="M266.736 42.3271H135.883C132.354 42.3271 129.53 45.1493 129.53 48.6769V54.2329C129.53 57.7606 132.354 60.5827 135.883 60.5827H266.648C270.177 60.5827 273.001 57.7606 273.001 54.2329V48.6769C273.089 45.1493 270.177 42.3271 266.736 42.3271Z" stroke="#8791FF" stroke-width="1.30868" stroke-miterlimit="10" stroke-linecap="round" stroke-linejoin="round"/>
</g>
<path d="M261.795 37.3882H131.031C127.501 37.3882 124.678 40.2103 124.678 43.7379V49.294C124.678 52.8216 127.501 55.6437 131.031 55.6437H261.795C265.325 55.6437 268.148 52.8216 268.148 49.294V43.7379C268.148 40.2103 265.325 37.3882 261.795 37.3882Z" fill="white"/>
<path d="M261.795 37.3882H131.031C127.501 37.3882 124.678 40.2103 124.678 43.7379V49.294C124.678 52.8216 127.501 55.6437 131.031 55.6437H261.795C265.325 55.6437 268.148 52.8216 268.148 49.294V43.7379C268.148 40.2103 265.325 37.3882 261.795 37.3882Z" stroke="#011635" stroke-width="1.30868" stroke-miterlimit="10" stroke-linecap="round" stroke-linejoin="round"/>
<path d="M257.558 43.561H162.353C160.676 43.561 159.353 44.8839 159.353 46.5595C159.353 48.2351 160.676 49.558 162.353 49.558H257.47C259.147 49.558 260.47 48.2351 260.47 46.5595C260.47 44.8839 259.147 43.561 257.558 43.561Z" fill="#F5F5FF"/>
<path d="M238.941 43.561H162.353C160.676 43.561 159.353 44.8839 159.353 46.5595C159.353 48.2351 160.676 49.558 162.353 49.558H238.941V43.561Z" fill="#8791FF"/>
<path d="M151.148 44.0908H146.118V49.1177H151.148V44.0908Z" stroke="#011635" stroke-width="1.30868" stroke-miterlimit="10" stroke-linecap="round" stroke-linejoin="round"/>
<g opacity="0.45">
<path opacity="0.45" d="M266.736 16.9282H135.883C132.354 16.9282 129.53 19.7503 129.53 23.278V28.834C129.53 32.3617 132.354 35.1838 135.883 35.1838H266.648C270.177 35.1838 273.001 32.3617 273.001 28.834V23.278C273.089 19.7503 270.177 16.9282 266.736 16.9282Z" fill="#8791FF"/>
<path opacity="0.45" d="M266.736 16.9282H135.883C132.354 16.9282 129.53 19.7503 129.53 23.278V28.834C129.53 32.3617 132.354 35.1838 135.883 35.1838H266.648C270.177 35.1838 273.001 32.3617 273.001 28.834V23.278C273.089 19.7503 270.177 16.9282 266.736 16.9282Z" stroke="#8791FF" stroke-width="1.30868" stroke-miterlimit="10" stroke-linecap="round" stroke-linejoin="round"/>
</g>
<path d="M261.795 11.9893H131.031C127.501 11.9893 124.678 14.8114 124.678 18.339V23.895C124.678 27.4227 127.501 30.2448 131.031 30.2448H261.795C265.325 30.2448 268.148 27.4227 268.148 23.895V18.339C268.148 14.8114 265.325 11.9893 261.795 11.9893Z" fill="white"/>
<path d="M261.795 11.9893H131.031C127.501 11.9893 124.678 14.8114 124.678 18.339V23.895C124.678 27.4227 127.501 30.2448 131.031 30.2448H261.795C265.325 30.2448 268.148 27.4227 268.148 23.895V18.339C268.148 14.8114 265.325 11.9893 261.795 11.9893Z" stroke="#011635" stroke-width="1.30868" stroke-miterlimit="10" stroke-linecap="round" stroke-linejoin="round"/>
<path d="M257.558 18.1631H162.353C160.676 18.1631 159.353 19.486 159.353 21.1616C159.353 22.8372 160.676 24.1601 162.353 24.1601H257.47C259.147 24.1601 260.47 22.8372 260.47 21.1616C260.47 19.486 259.147 18.1631 257.558 18.1631Z" fill="#F5F5FF"/>
<path d="M183.794 18.1631H162.353C160.676 18.1631 159.353 19.486 159.353 21.1616C159.353 22.8372 160.676 24.1601 162.353 24.1601H183.794V18.1631Z" fill="#8791FF"/>
<path d="M151.148 18.6919H146.118V23.7188H151.148V18.6919Z" stroke="#011635" stroke-width="1.30868" stroke-miterlimit="10" stroke-linecap="round" stroke-linejoin="round"/>
<g opacity="0.45">
<path opacity="0.45" d="M266.736 67.7266H135.883C132.354 67.7266 129.53 70.5487 129.53 74.0763V79.6324C129.53 83.16 132.354 85.9821 135.883 85.9821H266.648C270.177 85.9821 273.001 83.16 273.001 79.6324V74.0763C273.089 70.6369 270.177 67.7266 266.736 67.7266Z" fill="#8791FF"/>
<path opacity="0.45" d="M266.736 67.7266H135.883C132.354 67.7266 129.53 70.5487 129.53 74.0763V79.6324C129.53 83.16 132.354 85.9821 135.883 85.9821H266.648C270.177 85.9821 273.001 83.16 273.001 79.6324V74.0763C273.089 70.6369 270.177 67.7266 266.736 67.7266Z" stroke="#8791FF" stroke-width="1.30868" stroke-miterlimit="10" stroke-linecap="round" stroke-linejoin="round"/>
</g>
<path d="M261.795 62.7876H131.031C127.501 62.7876 124.678 65.6097 124.678 69.1374V74.6934C124.678 78.221 127.501 81.0432 131.031 81.0432H261.795C265.325 81.0432 268.148 78.221 268.148 74.6934V69.1374C268.148 65.6979 265.325 62.7876 261.795 62.7876Z" fill="white"/>
<path d="M261.795 62.7876H131.031C127.501 62.7876 124.678 65.6097 124.678 69.1374V74.6934C124.678 78.221 127.501 81.0432 131.031 81.0432H261.795C265.325 81.0432 268.148 78.221 268.148 74.6934V69.1374C268.148 65.6979 265.325 62.7876 261.795 62.7876Z" stroke="#011635" stroke-width="1.30868" stroke-miterlimit="10" stroke-linecap="round" stroke-linejoin="round"/>
<path d="M257.558 68.9609H162.353C160.676 68.9609 159.353 70.2838 159.353 71.9594C159.353 73.635 160.676 74.9579 162.353 74.9579H257.47C259.147 74.9579 260.47 73.635 260.47 71.9594C260.47 70.2838 259.147 68.9609 257.558 68.9609Z" fill="#F5F5FF"/>
<path d="M253.941 68.9609H162.353C160.676 68.9609 159.353 70.2838 159.353 71.9594C159.353 73.635 160.676 74.9579 162.353 74.9579H253.941V68.9609Z" fill="#8791FF"/>
<path d="M151.148 69.4902H146.118V74.5171H151.148V69.4902Z" stroke="#011635" stroke-width="1.30868" stroke-miterlimit="10" stroke-linecap="round" stroke-linejoin="round"/>
<path d="M130.677 22.043C115.765 22.043 116.471 33.3314 102.971 33.3314" stroke="#011635" stroke-width="1.30868" stroke-miterlimit="10" stroke-linecap="round" stroke-linejoin="round"/>
<path d="M97.9414 33.3312C97.9414 31.9201 99.0885 30.8618 100.412 30.8618C101.824 30.8618 102.883 32.0083 102.883 33.3312C102.883 34.7422 101.736 35.8005 100.412 35.8005C99.0002 35.8887 97.9414 34.7422 97.9414 33.3312Z" fill="#011635" stroke="#011635" stroke-width="1.30868" stroke-miterlimit="10" stroke-linecap="round" stroke-linejoin="round"/>
<path d="M130.677 22.0431C130.677 20.632 131.824 19.5737 133.147 19.5737C134.559 19.5737 135.618 20.7202 135.618 22.0431C135.618 23.4541 134.471 24.5124 133.147 24.5124C131.736 24.5124 130.677 23.4541 130.677 22.0431Z" fill="#011635" stroke="#011635" stroke-width="1.30868" stroke-miterlimit="10" stroke-linecap="round" stroke-linejoin="round"/>
<path d="M97.9414 47.1774C97.9414 45.7663 99.0885 44.708 100.412 44.708C101.824 44.708 102.883 45.8545 102.883 47.1774C102.883 48.5884 101.736 49.6467 100.412 49.6467C99.0002 49.6467 97.9414 48.5002 97.9414 47.1774Z" fill="#011635" stroke="#011635" stroke-width="1.30868" stroke-miterlimit="10" stroke-linecap="round" stroke-linejoin="round"/>
<path d="M130.677 47.1774C130.677 45.7663 131.824 44.708 133.147 44.708C134.559 44.708 135.618 45.8545 135.618 47.1774C135.618 48.5884 134.471 49.6467 133.147 49.6467C131.736 49.6467 130.677 48.5002 130.677 47.1774Z" fill="#011635" stroke="#011635" stroke-width="1.30868" stroke-miterlimit="10" stroke-linecap="round" stroke-linejoin="round"/>
<path d="M130.676 47.1772H102.882" stroke="#011635" stroke-width="1.30868" stroke-miterlimit="10" stroke-linecap="round" stroke-linejoin="round"/>
<path d="M130.677 71.3417C115.765 71.3417 116.471 60.0532 102.971 60.0532" stroke="#011635" stroke-width="1.30868" stroke-miterlimit="10" stroke-linecap="round" stroke-linejoin="round"/>
<path d="M97.9414 60.0532C97.9414 61.4643 99.0885 62.5226 100.412 62.5226C101.824 62.5226 102.883 61.3761 102.883 60.0532C102.883 58.6422 101.736 57.5839 100.412 57.5839C99.0002 57.4957 97.9414 58.6422 97.9414 60.0532Z" fill="#011635" stroke="#011635" stroke-width="1.30868" stroke-miterlimit="10" stroke-linecap="round" stroke-linejoin="round"/>
<path d="M130.677 71.3414C130.677 72.7525 131.824 73.8108 133.147 73.8108C134.559 73.8108 135.618 72.6643 135.618 71.3414C135.618 69.9304 134.471 68.8721 133.147 68.8721C131.736 68.8721 130.677 69.9304 130.677 71.3414Z" fill="#011635" stroke="#011635" stroke-width="1.30868" stroke-miterlimit="10" stroke-linecap="round" stroke-linejoin="round"/>
</g>
<defs>
<clipPath id="clip0_3224_32249">
<rect width="624" height="425" fill="white"/>
</clipPath>
</defs>
</svg>
